<?xml version="1.0" standalone="no"?>
<!DOCTYPE svg PUBLIC "-//W3C//DTD SVG 20010904//EN"
 "http://www.w3.org/TR/2001/REC-SVG-20010904/DTD/svg10.dtd">
<svg version="1.0" xmlns="http://www.w3.org/2000/svg"
 width="500.000000pt" height="500.000000pt" viewBox="0 0 500.000000 500.000000"
 preserveAspectRatio="xMidYMid meet">
<metadata>
Created by potrace 1.11, written by Peter Selinger 2001-2013
</metadata>
<g transform="translate(0.000000,500.000000) scale(0.100000,-0.100000)"
fill="#000000" stroke="none">
<path d="M705 4976 c-74 -45 -90 -104 -66 -236 33 -178 109 -367 206 -517 32
-48 61 -90 64 -93 4 -3 17 -18 30 -35 12 -16 44 -53 69 -81 68 -74 102 -113
102 -118 0 -3 11 -21 24 -41 35 -51 84 -174 100 -249 17 -80 48 -130 98 -152
51 -23 251 -23 294 -1 36 19 70 54 82 88 41 106 -91 490 -225 659 -46 58 -86
105 -128 149 -100 106 -170 222 -214 359 -17 52 -31 106 -31 120 0 15 -11 50
-24 79 -36 77 -69 90 -221 92 -111 1 -123 -1 -160 -23z"/>
<path d="M1820 4989 c-33 -13 -68 -47 -86 -81 -19 -37 -18 -82 7 -201 56 -269
176 -496 373 -704 105 -112 171 -232 210 -382 41 -160 75 -185 252 -183 100 0
119 3 155 24 76 42 93 107 63 243 -21 97 -20 94 -39 150 -63 184 -150 325
-305 492 -119 129 -197 270 -232 421 -31 135 -46 169 -86 200 -34 26 -41 27
-161 29 -71 2 -137 -2 -151 -8z"/>
<path d="M259 3119 c-95 -16 -185 -84 -229 -174 l-25 -50 -2 -1030 c-1 -681 1
-1047 8 -1080 70 -336 266 -583 563 -709 181 -78 130 -75 1321 -72 583 1 1076
5 1095 10 339 76 604 311 714 633 13 38 23 70 24 73 0 10 13 95 17 115 2 11 4
39 4 61 l1 42 123 1 c176 1 297 21 424 72 381 151 636 475 693 882 14 101 7
279 -15 372 -100 434 -435 756 -874 842 -78 15 -250 17 -1947 17 -1023 1
-1876 -1 -1895 -5z m3743 -630 c82 -17 170 -65 232 -126 186 -183 186 -474 2
-659 -104 -104 -186 -135 -368 -140 l-118 -3 0 470 0 469 100 0 c54 0 123 -5
152 -11z"/>
</g>
</svg>
